<?xml version="1.0" encoding="utf-8"?>
<!-- Generator: Adobe Illustrator 16.0.0, SVG Export Plug-In . SVG Version: 6.00 Build 0)  -->
<!DOCTYPE svg PUBLIC "-//W3C//DTD SVG 1.1//EN" "http://www.w3.org/Graphics/SVG/1.1/DTD/svg11.dtd">
<svg version="1.1" id="Layer_1" xmlns="http://www.w3.org/2000/svg" xmlns:xlink="http://www.w3.org/1999/xlink" x="0px" y="0px"
	 width="50px" height="50px" viewBox="0 0 50 50" enable-background="new 0 0 50 50" xml:space="preserve">
<path d="M40.809,19.016c-0.246-0.764-0.866-1.779-2.422-2.284c-0.376-0.122-0.775-0.183-1.189-0.183
	c-3.226,0-7.063,3.945-8.995,6.201c-0.71-1.008-1.878-1.671-3.202-1.671s-2.491,0.664-3.203,1.671
	c-1.93-2.255-5.769-6.201-8.995-6.201c-0.414,0-0.814,0.062-1.189,0.183c-1.556,0.505-2.176,1.521-2.423,2.284
	c-0.671,2.084,0.662,4.656,1.5,5.984c-0.838,1.328-2.171,3.899-1.5,5.984c0.247,0.764,0.867,1.779,2.423,2.284
	c0.375,0.122,0.775,0.183,1.189,0.183c3.226,0,7.064-3.946,8.996-6.201c0.71,1.008,1.878,1.671,3.202,1.671s2.491-0.663,3.202-1.671
	c1.931,2.255,5.769,6.201,8.995,6.201c0.414,0,0.813-0.062,1.189-0.183c1.556-0.505,2.176-1.521,2.422-2.284
	c0.671-2.084-0.662-4.656-1.5-5.984C40.146,23.672,41.479,21.101,40.809,19.016z M25,26.311c-0.723,0-1.312-0.588-1.312-1.311
	c0-0.723,0.588-1.312,1.312-1.312c0.723,0,1.31,0.588,1.31,1.312C26.311,25.723,25.723,26.311,25,26.311z"/>
</svg>
