<svg width="231pt" height="20pt" viewBox="0 0 231 20" xmlns="http://www.w3.org/2000/svg"><g fill="#555"><path d="M109.92.18c3.78.1 7.55.09 11.32.01-1.56 2.35-2.83 4.91-3.37 7.7 2.72-.79 5.33-1.94 7.69-3.52-.09 3.75-.09 7.51-.01 11.26-2.4-1.51-4.99-2.69-7.7-3.52.52 2.8 1.83 5.35 3.4 7.7-3.77-.08-7.55-.09-11.33.01 1.58-2.36 2.8-4.93 3.54-7.67-2.75.72-5.37 1.86-7.76 3.4.07-3.7.07-7.41 0-11.12 2.38 1.58 5 2.73 7.76 3.47-.73-2.76-1.94-5.35-3.54-7.72zM40.97 14.85c15.79-3.17 30.71-10.6 47.02-11.12 5.4-.14 11.65.68 15.22 5.2 1.98 2.55 1.72 7.17-1.67 8.37-4.67 1.47-11.37 1.23-13.8-3.83 4.01 1.68 8.94 4.11 13.02 1.27 2.5-1.69.97-5.13-1.34-6.15-5.72-2.97-12.57-2.41-18.63-.91-11.67 3.49-23.23 7.44-35.2 9.78-6.09 1.26-12.71.73-17.84-3.06-3.93 2.99-8.78 4.99-13.8 4.52-5.6-.61-11.04-3.68-13.95-8.59v-.62c7.14 5.95 18.05 7.44 26.08 2.41-.71-2.45-.85-4.99.01-7.42 1.49.51 3.83-.07 4.44 1.83 1.17 2.01-.46 4.07-1.07 5.95 3.49 1.86 7.5 3.36 11.51 2.37m-13.85-7.84c-1.34.91-.16 3.79 1.41 2.53 1.37-.91.15-3.77-1.41-2.53zM128.79 7.78c3.77-3.6 9.28-4.15 14.24-4.05 16.08.53 30.79 7.78 46.34 11.01 4.16 1.13 8.44-.23 12.08-2.28-.65-1.88-2.17-3.98-1.07-6 .6-1.78 2.82-1.71 4.27-1.15 1.71 1.98.57 4.57.08 6.77 8.1 5.02 19.19 3.71 26.27-2.54v.57c-3.74 6.44-11.74 10.01-19.02 8.49-3.29-.51-6.14-2.34-8.8-4.23-4.88 3.58-11.14 4.36-16.99 3.24-12.01-2.26-23.63-6.14-35.29-9.73-6.27-1.67-13.33-2.32-19.32.64-2.37.98-3.98 4.51-1.43 6.24 4.07 2.75 8.93.56 12.83-1.34-1.06 3.34-4.76 4.54-7.92 4.6-2.74.08-6.11.04-7.85-2.45-1.54-2.53-.57-5.93 1.58-7.79m73.5-.84c-1.4.92-.06 3.58 1.5 2.73 1.36-.92.04-3.59-1.5-2.73z"/></g></svg>