<?xml version="1.0" encoding="UTF-8" standalone="no"?>
<!-- Created with Inkscape (http://www.inkscape.org/) -->

<svg
   xmlns:dc="http://purl.org/dc/elements/1.1/"
   xmlns:cc="http://creativecommons.org/ns#"
   xmlns:rdf="http://www.w3.org/1999/02/22-rdf-syntax-ns#"
   xmlns:svg="http://www.w3.org/2000/svg"
   xmlns="http://www.w3.org/2000/svg"
   xmlns:sodipodi="http://sodipodi.sourceforge.net/DTD/sodipodi-0.dtd"
   xmlns:inkscape="http://www.inkscape.org/namespaces/inkscape"
   width="149.63351"
   height="147.55037"
   id="svg4283"
   version="1.1"
   inkscape:version="0.48.4 r9939"
   sodipodi:docname="gil-tribe-white.svg">
  <defs
     id="defs4285">
    <clipPath
       clipPathUnits="userSpaceOnUse"
       id="clipPath72">
      <path
         inkscape:connector-curvature="0"
         d="M 0,400 481,400 481,0 0,0 0,400 z"
         id="path74" />
    </clipPath>
  </defs>
  <sodipodi:namedview
     id="base"
     pagecolor="#ffffff"
     bordercolor="#666666"
     borderopacity="1.0"
     inkscape:pageopacity="0.0"
     inkscape:pageshadow="2"
     inkscape:zoom="3.959798"
     inkscape:cx="120.92095"
     inkscape:cy="59.493072"
     inkscape:document-units="px"
     inkscape:current-layer="layer1"
     showgrid="false"
     fit-margin-top="10"
     fit-margin-left="10"
     fit-margin-right="10"
     fit-margin-bottom="10"
     inkscape:window-width="1600"
     inkscape:window-height="838"
     inkscape:window-x="-8"
     inkscape:window-y="-8"
     inkscape:window-maximized="1" />
  <metadata
     id="metadata4288">
    <rdf:RDF>
      <cc:Work
         rdf:about="">
        <dc:format>image/svg+xml</dc:format>
        <dc:type
           rdf:resource="http://purl.org/dc/dcmitype/StillImage" />
        <dc:title />
      </cc:Work>
    </rdf:RDF>
  </metadata>
  <g
     inkscape:label="Layer 1"
     inkscape:groupmode="layer"
     id="layer1"
     transform="translate(-300.18325,-458.58699)">
    <g
       transform="scale(1.1474865,0.87146995)"
       style="font-size:24.39728545999999900px;display:inline;fill:#ffffff"
       id="text40">
      <path
         d="m 281.4707,628.04764 0,2.61749 -7.84053,0 0,5.23498 6.61764,0 0,2.63018 -6.61764,0 0,7.20445 -3.31479,0 0,-17.6871 z"
         style="font-size:24.46376610000000100px;font-variant:normal;font-weight:600;font-stretch:normal;writing-mode:lr-tb;fill:#ffffff;fill-opacity:1;fill-rule:nonzero;stroke:none;font-family:Lato;-inkscape-font-specification:Lato"
         id="path4374" />
      <path
         d="m 295.18379,628.04764 0,2.61749 -7.84053,0 0,4.90499 6.17716,0 0,2.53164 -6.17716,0 0,5.0028 7.84053,0 0,2.63018 -11.15532,0 0,-17.6871 z"
         style="font-size:24.46376610000000100px;font-variant:normal;font-weight:600;font-stretch:normal;writing-mode:lr-tb;fill:#ffffff;fill-opacity:1;fill-rule:nonzero;stroke:none;font-family:Lato;-inkscape-font-specification:Lato"
         id="path4376" />
      <path
         d="m 301.42889,638.8237 0,6.91104 -3.29016,0 0,-17.6871 5.39401,0 c 1.20695,10e-6 2.24058,0.12432 3.10089,0.37291 0.8603,0.24863 1.56568,0.59715 2.11617,1.04558 0.55046,0.44846 0.95411,0.98462 1.21095,1.60849 0.2568,0.62391 0.38521,1.31088 0.38523,2.06092 -2e-5,0.59578 -0.0877,1.15857 -0.26317,1.68838 -0.17546,0.52983 -0.4283,1.01087 -0.75852,1.44313 -0.33025,0.43228 -0.738,0.81154 -1.22326,1.13778 -0.48529,0.32626 -1.03775,0.58719 -1.6574,0.78279 0.41608,0.23642 0.77493,0.57487 1.07656,1.01534 l 4.42794,6.53178 -2.96017,0 c -0.28521,0 -0.52772,-0.0571 -0.72754,-0.17134 -0.19984,-0.11422 -0.36919,-0.27735 -0.50804,-0.48938 l -3.71795,-5.66351 c -0.13887,-0.21203 -0.29191,-0.36283 -0.45914,-0.45243 -0.16724,-0.0896 -0.41386,-0.13438 -0.73986,-0.13438 z m 0,-2.36067 2.05457,0 c 0.62015,10e-6 1.16054,-0.0775 1.62119,-0.23256 0.46063,-0.15503 0.83976,-0.36905 1.13741,-0.64205 0.29762,-0.27299 0.51985,-0.59713 0.66669,-0.97242 0.14681,-0.37527 0.22023,-0.78713 0.22024,-1.23558 -10e-6,-0.89687 -0.29566,-1.58584 -0.88693,-2.06689 -0.5913,-0.48103 -1.49441,-0.72155 -2.70932,-0.72157 l -2.10385,0 z"
         style="font-size:24.46376610000000100px;font-variant:normal;font-weight:600;font-stretch:normal;writing-mode:lr-tb;fill:#ffffff;fill-opacity:1;fill-rule:nonzero;stroke:none;font-family:Lato;-inkscape-font-specification:Lato"
         id="path4378" />
      <path
         d="m 317.43545,638.8237 0,6.91104 -3.29015,0 0,-17.6871 5.394,0 c 1.20695,10e-6 2.24059,0.12432 3.1009,0.37291 0.86029,0.24863 1.56568,0.59715 2.11617,1.04558 0.55046,0.44846 0.95411,0.98462 1.21094,1.60849 0.25681,0.62391 0.38522,1.31088 0.38523,2.06092 -10e-6,0.59578 -0.0877,1.15857 -0.26316,1.68838 -0.17546,0.52983 -0.4283,1.01087 -0.75852,1.44313 -0.33025,0.43228 -0.73801,0.81154 -1.22327,1.13778 -0.48528,0.32626 -1.03775,0.58719 -1.65739,0.78279 0.41608,0.23642 0.77493,0.57487 1.07656,1.01534 l 4.42793,6.53178 -2.96017,0 c -0.2852,0 -0.52771,-0.0571 -0.72753,-0.17134 -0.19985,-0.11422 -0.3692,-0.27735 -0.50805,-0.48938 l -3.71794,-5.66351 c -0.13887,-0.21203 -0.29192,-0.36283 -0.45914,-0.45243 -0.16724,-0.0896 -0.41386,-0.13438 -0.73986,-0.13438 z m 0,-2.36067 2.05458,0 c 0.62014,10e-6 1.16054,-0.0775 1.62118,-0.23256 0.46063,-0.15503 0.83977,-0.36905 1.13741,-0.64205 0.29763,-0.27299 0.51986,-0.59713 0.66669,-0.97242 0.14682,-0.37527 0.22023,-0.78713 0.22024,-1.23558 -1e-5,-0.89687 -0.29565,-1.58584 -0.88693,-2.06689 -0.5913,-0.48103 -1.4944,-0.72155 -2.70932,-0.72157 l -2.10385,0 z"
         style="font-size:24.46376610000000100px;font-variant:normal;font-weight:600;font-stretch:normal;writing-mode:lr-tb;fill:#ffffff;fill-opacity:1;fill-rule:nonzero;stroke:none;font-family:Lato;-inkscape-font-specification:Lato"
         id="path4380" />
      <path
         d="m 341.19669,628.04764 0,2.61749 -7.84053,0 0,4.90499 6.17716,0 0,2.53164 -6.17716,0 0,5.0028 7.84053,0 0,2.63018 -11.15532,0 0,-17.6871 z"
         style="font-size:24.46376610000000100px;font-variant:normal;font-weight:600;font-stretch:normal;writing-mode:lr-tb;fill:#ffffff;fill-opacity:1;fill-rule:nonzero;stroke:none;font-family:Lato;-inkscape-font-specification:Lato"
         id="path4382" />
      <path
         d="m 347.74714,645.73474 -3.3021,0 0,-17.6871 3.3021,0 z"
         style="font-size:24.46376610000000100px;font-variant:normal;font-weight:600;font-stretch:normal;writing-mode:lr-tb;fill:#ffffff;fill-opacity:1;fill-rule:nonzero;stroke:none;font-family:Lato;-inkscape-font-specification:Lato"
         id="path4384" />
      <path
         d="m 355.1345,638.8237 0,6.91104 -3.29016,0 0,-17.6871 5.39401,0 c 1.20695,10e-6 2.24058,0.12432 3.1009,0.37291 0.86029,0.24863 1.56568,0.59715 2.11616,1.04558 0.55046,0.44846 0.95411,0.98462 1.21095,1.60849 0.25681,0.62391 0.38522,1.31088 0.38523,2.06092 -10e-6,0.59578 -0.0877,1.15857 -0.26317,1.68838 -0.17546,0.52983 -0.4283,1.01087 -0.75852,1.44313 -0.33025,0.43228 -0.738,0.81154 -1.22326,1.13778 -0.48529,0.32626 -1.03775,0.58719 -1.6574,0.78279 0.41608,0.23642 0.77494,0.57487 1.07656,1.01534 l 4.42794,6.53178 -2.96017,0 c -0.2852,0 -0.52772,-0.0571 -0.72754,-0.17134 -0.19984,-0.11422 -0.36919,-0.27735 -0.50804,-0.48938 l -3.71794,-5.66351 c -0.13887,-0.21203 -0.29192,-0.36283 -0.45915,-0.45243 -0.16724,-0.0896 -0.41386,-0.13438 -0.73985,-0.13438 z m 0,-2.36067 2.05457,0 c 0.62015,10e-6 1.16055,-0.0775 1.62119,-0.23256 0.46063,-0.15503 0.83976,-0.36905 1.13741,-0.64205 0.29762,-0.27299 0.51985,-0.59713 0.66669,-0.97242 0.14681,-0.37527 0.22023,-0.78713 0.22024,-1.23558 -1e-5,-0.89687 -0.29566,-1.58584 -0.88693,-2.06689 -0.5913,-0.48103 -1.4944,-0.72155 -2.70932,-0.72157 l -2.10385,0 z"
         style="font-size:24.46376610000000100px;font-variant:normal;font-weight:600;font-stretch:normal;writing-mode:lr-tb;fill:#ffffff;fill-opacity:1;fill-rule:nonzero;stroke:none;font-family:Lato;-inkscape-font-specification:Lato"
         id="path4386" />
      <path
         d="m 383.28709,645.73474 -2.54433,0 c -0.28521,0 -0.51951,-0.0713 -0.7029,-0.21389 -0.18342,-0.1426 -0.31594,-0.31991 -0.39755,-0.53194 l -1.32144,-3.60894 -7.32688,0 -1.3207,3.60894 c -0.0652,0.18714 -0.19361,0.35823 -0.38523,0.51327 -0.19162,0.15504 -0.42605,0.23256 -0.70327,0.23256 l -2.55702,0 6.94763,-17.6871 3.36406,0 z m -11.44873,-6.67886 5.63888,0 -2.15312,-5.88301 c -0.0976,-0.26129 -0.20557,-0.56925 -0.32401,-0.92388 -0.11847,-0.35461 -0.23469,-0.73997 -0.34865,-1.15608 -0.11399,0.41611 -0.2261,0.80358 -0.33634,1.16242 -0.11025,0.35887 -0.21838,0.67268 -0.32438,0.94143 z"
         style="font-size:24.46376610000000100px;font-variant:normal;font-weight:600;font-stretch:normal;writing-mode:lr-tb;fill:#ffffff;fill-opacity:1;fill-rule:nonzero;stroke:none;font-family:Lato;-inkscape-font-specification:Lato"
         id="path4388" />
    </g>
    <g
       style="display:inline;fill:#ffffff"
       id="g44"
       transform="matrix(1.25,0,0,-1.25,312.39592,596.13362)">
      <path
         d="M 0,0 3.374,7.289 3.93,3.969 7.292,3.37 0.004,-0.003 0,0 z"
         style="fill:#ffffff;fill-opacity:1;fill-rule:nonzero;stroke:none"
         id="path46"
         inkscape:connector-curvature="0" />
    </g>
    <g
       style="display:inline;fill:#ffffff"
       id="g48"
       transform="matrix(1.25,0,0,-1.25,426.17029,482.51237)">
      <path
         d="m 0,0 0,6.24 0.972,0 -0.001,-5.264 5.277,0 0,-0.972 -5.277,0 L 0.971,0 0,0 z"
         style="fill:#ffffff;fill-opacity:1;fill-rule:nonzero;stroke:none"
         id="path50"
         inkscape:connector-curvature="0" />
    </g>
    <g
       style="display:inline;fill:#ffffff"
       id="g52"
       transform="matrix(1.25,0,0,-1.25,423.50191,485.18087)">
      <path
         d="m 0,0 0,6.241 0.972,0 0,-5.265 5.276,0 0,-0.972 -5.276,0 L 0.972,0 0,0 z"
         style="fill:#ffffff;fill-opacity:1;fill-rule:nonzero;stroke:none"
         id="path54"
         inkscape:connector-curvature="0" />
    </g>
    <g
       style="display:inline;fill:#ffffff"
       id="g56"
       transform="matrix(1.25,0,0,-1.25,433.98041,596.13362)">
      <path
         d="M 0,0 -3.374,7.289 -3.93,3.969 -7.292,3.37 -0.004,-0.003 0,0 z"
         style="fill:#ffffff;fill-opacity:1;fill-rule:nonzero;stroke:none"
         id="path58"
         inkscape:connector-curvature="0" />
    </g>
    <g
       style="display:inline;fill:#ffffff"
       id="g60"
       transform="matrix(1.25,0,0,-1.25,320.20542,482.51237)">
      <path
         d="m 0,0 0,6.24 -0.971,0 0,-5.264 -5.277,0 0,-0.972 5.277,0 L -0.971,0 0,0 z"
         style="fill:#ffffff;fill-opacity:1;fill-rule:nonzero;stroke:none"
         id="path62"
         inkscape:connector-curvature="0" />
    </g>
    <g
       style="display:inline;fill:#ffffff"
       id="g64"
       transform="matrix(1.25,0,0,-1.25,322.87379,485.18087)">
      <path
         d="m 0,0 0,6.241 -0.971,0 0,-5.265 -5.277,0 0,-0.972 5.277,0 L -0.971,0 0,0 z"
         style="fill:#ffffff;fill-opacity:1;fill-rule:nonzero;stroke:none"
         id="path66"
         inkscape:connector-curvature="0" />
    </g>
    <g
       transform="matrix(1.25,0,0,-1.25,199.70304,894.80362)"
       style="display:inline;fill:#ffffff"
       id="g68">
      <g
         id="g70"
         clip-path="url(#clipPath72)"
         style="fill:#ffffff">
        <g
           id="g76"
           transform="translate(137.5957,334.6943)"
           style="fill:#ffffff">
          <path
             d="m 0,0 c -0.059,0.137 -0.501,1.124 -1.213,1.571 0,0 0.367,1.804 1.188,2.823 l 0.05,0 C 0.848,3.375 1.213,1.571 1.213,1.571 0.501,1.124 0.059,0.137 0,0 M 3.503,-5.088 C 3.476,-4.726 3.436,-4.362 3.385,-3.999 2.727,-4.358 2.082,-4.36 2.082,-4.36 2.729,-3.885 3.227,-2.904 3.074,-2.243 2.253,1.532 0.627,4.962 0.165,5.889 L 0.01,6.279 -0.22,5.778 c -0.527,-1.073 -2.062,-4.391 -2.852,-8.021 -0.154,-0.661 0.343,-1.642 0.989,-2.117 0,0 -0.645,0.002 -1.301,0.361 -0.052,-0.363 -0.091,-0.727 -0.118,-1.089 -0.362,-4.675 2.595,-7.172 3.401,-7.765 l 0.202,0 c 0.808,0.593 3.761,3.09 3.402,7.765"
             style="fill:#ffffff;fill-opacity:1;fill-rule:nonzero;stroke:none"
             id="path78"
             inkscape:connector-curvature="0" />
        </g>
        <path
           d="m 138.056,317.015 -0.897,0 0,7.603 0.897,0 0,-7.603 z"
           style="fill:#ffffff;fill-opacity:1;fill-rule:nonzero;stroke:none"
           id="path80"
           inkscape:connector-curvature="0" />
        <g
           id="g82"
           transform="translate(137.5962,246.1851)"
           style="fill:#ffffff">
          <path
             d="M 0,0 -3.647,4.38 -7.294,8.76 0,8.76 7.294,8.76 3.647,4.38 0,0 z"
             style="fill:#ffffff;fill-opacity:1;fill-rule:nonzero;stroke:none"
             id="path84"
             inkscape:connector-curvature="0" />
        </g>
        <g
           id="g86"
           transform="translate(92.5498,241.8721)"
           style="fill:#ffffff">
          <path
             d="m 0,0 0.669,-0.67 15.475,15.475 -1.339,0 L 0,0 z"
             style="fill:#ffffff;fill-opacity:1;fill-rule:nonzero;stroke:none"
             id="path88"
             inkscape:connector-curvature="0" />
        </g>
        <g
           id="g90"
           transform="translate(182.3687,330.3521)"
           style="fill:#ffffff">
          <path
             d="m 0,0 -0.669,0.67 -18.422,-18.421 1.339,0 L 0,0 z"
             style="fill:#ffffff;fill-opacity:1;fill-rule:nonzero;stroke:none"
             id="path92"
             inkscape:connector-curvature="0" />
        </g>
        <g
           id="g94"
           transform="translate(95.877,331.022)"
           style="fill:#ffffff">
          <path
             d="m 0,0 -0.669,-0.67 17.751,-17.751 1.34,0 L 0,0 z"
             style="fill:#ffffff;fill-opacity:1;fill-rule:nonzero;stroke:none"
             id="path96"
             inkscape:connector-curvature="0" />
        </g>
        <g
           id="g98"
           transform="translate(184.3569,241.2021)"
           style="fill:#ffffff">
          <path
             d="m 0,0 0.669,0.67 -14.804,14.805 -1.34,0 L 0,0 z"
             style="fill:#ffffff;fill-opacity:1;fill-rule:nonzero;stroke:none"
             id="path100"
             inkscape:connector-curvature="0" />
        </g>
      </g>
    </g>
    <g
       transform="matrix(0.94004465,0,0.04906505,0.86493146,-14.49074,116.62008)"
       style="font-size:38.5246315px;fill:#ffffff;display:inline"
       id="text40-7">
      <path
         d="m 371.98699,484.11125 c 1.17179,1e-5 2.19618,-0.10629 3.07318,-0.31888 0.87697,-0.21259 1.71483,-0.50554 2.5136,-0.87886 l 0.18524,-5.0798 -3.49539,0 c -0.33482,1e-5 -0.59548,-0.0933 -0.782,-0.27999 -0.18654,-0.18664 -0.27488,-0.41515 -0.265,-0.68552 l 0.10705,-2.93541 9.29077,0 -0.41202,11.2984 c -0.72694,0.51557 -1.48046,0.96315 -2.26054,1.34275 -0.78014,0.3796 -1.60928,0.69181 -2.48742,0.93662 -0.87817,0.24481 -1.8152,0.42833 -2.81107,0.55054 -0.99592,0.12221 -2.0668,0.18331 -3.21266,0.18331 -2.03476,0 -3.89549,-0.35405 -5.58217,-1.06217 -1.68671,-0.70811 -3.13146,-1.69307 -4.33428,-2.95487 -1.20282,-1.26179 -2.12321,-2.7684 -2.76116,-4.51983 -0.63796,-1.75142 -0.91913,-3.66376 -0.84353,-5.73703 0.0765,-2.09839 0.488,-4.02331 1.23445,-5.77475 0.74643,-1.75141 1.77021,-3.25802 3.07135,-4.51984 1.30112,-1.26177 2.85932,-2.24024 4.67462,-2.93541 1.81527,-0.69512 3.83696,-1.04269 6.06506,-1.04272 2.27916,3e-5 4.24008,0.33797 5.88279,1.01384 1.64266,0.67591 3.0239,1.55457 4.14372,2.63598 l -1.59256,2.35658 c -0.31367,0.47629 -0.71532,0.71442 -1.20493,0.7144 -0.30889,2e-5 -0.62067,-0.10293 -0.93537,-0.30886 -0.40293,-0.2444 -0.81566,-0.48902 -1.23818,-0.73386 -0.42257,-0.24479 -0.89128,-0.45738 -1.40614,-0.63777 -0.5149,-0.18035 -1.09541,-0.3283 -1.74153,-0.44385 -0.64615,-0.11551 -1.39401,-0.17327 -2.24357,-0.1733 -1.37774,3e-5 -2.63187,0.23168 -3.7624,0.69495 -1.13056,0.46333 -2.10433,1.12645 -2.92132,1.98937 -0.817,0.86296 -1.46016,1.89959 -1.92946,3.10989 -0.46934,1.21033 -0.73123,2.56212 -0.78567,4.05535 -0.0587,1.60958 0.11443,3.04212 0.51937,4.29762 0.40494,1.25551 0.9974,2.31474 1.7774,3.17767 0.78,0.86295 1.72163,1.52293 2.82491,1.97993 1.10326,0.45702 2.31821,0.68553 3.64486,0.68552 z"
         style="font-size:38.62960434px;font-variant:normal;font-weight:600;font-stretch:normal;writing-mode:lr-tb;fill:#ffffff;fill-opacity:1;fill-rule:nonzero;stroke:none;font-family:Lato;-inkscape-font-specification:Lato"
         id="path4367"
         inkscape:connector-curvature="0" />
      <path
         d="m 392.79037,487.93555 -5.21419,0 1.01846,-27.9289 5.21419,0 z"
         style="font-size:38.62960434px;font-variant:normal;font-weight:600;font-stretch:normal;writing-mode:lr-tb;fill:#ffffff;fill-opacity:1;fill-rule:nonzero;stroke:none;font-family:Lato;-inkscape-font-specification:Lato"
         id="path4369"
         inkscape:connector-curvature="0" />
      <path
         d="m 404.43729,483.64795 11.18405,0 -0.15635,4.2876 -16.37939,0 1.01846,-27.9289 5.19534,0 z"
         style="font-size:38.62960434px;font-variant:normal;font-weight:600;font-stretch:normal;writing-mode:lr-tb;fill:#ffffff;fill-opacity:1;fill-rule:nonzero;stroke:none;font-family:Lato;-inkscape-font-specification:Lato"
         id="path4371"
         inkscape:connector-curvature="0" />
    </g>
  </g>
</svg>
